<svg xmlns="http://www.w3.org/2000/svg" viewBox="0 0 170.08 146.48"><defs><style>.cls-1{fill:#11bdce;}.cls-2{fill:#bbbdbf;}.cls-3{fill:none;}</style></defs><title>資產 1</title><g id="圖層_2" data-name="圖層 2"><g id="圖層_1-2" data-name="圖層 1"><path class="cls-1" d="M41.73,0c2.34,0,3.5,1.38,3.5,4.13v5H76.68q3.07,0,3.07,3.3,0,3.72-3.07,3.72H14.48c-1.83,0-2.73,1.06-2.73,3.2V49.45A172.54,172.54,0,0,1,10,76.91,112.82,112.82,0,0,1,6.62,93.74C6,95.39,5.08,96.22,3.88,96.22Q.64,96,.47,92.5a22.18,22.18,0,0,1,.85-4c.4-1.65.8-3.45,1.2-5.37q1-4.86,1.71-9.91A209.41,209.41,0,0,0,5.51,49.45V15.59q0-6.51,5.89-6.5H38.32v-5C38.32,1.38,39.45,0,41.73,0Z"/><path class="cls-1" d="M166.37,3.72q3.24,0,3.24,3.3,0,3.62-3.24,3.61H99.61q-2.81,0-2.8,3.31V83.42q0,3.3,2.8,3.3H166q3.15,0,3.15,3.2,0,3.83-3.15,3.82H97.17q-6.84,0-6.85-7.95V11.05q0-7.34,6.85-7.33ZM101.5,35.1a5.8,5.8,0,0,1,2.52.72q4.86,3.21,8.65,6.2a4.94,4.94,0,0,1,1.35,3.3q0,3.41-2.88,3.41a3.67,3.67,0,0,1-2.43-.83A97.79,97.79,0,0,0,100,41.19a3.65,3.65,0,0,1-1.72-2.78Q98.25,35.1,101.5,35.1Zm14,18.89c1.86.07,2.8,1.21,2.8,3.41a8.78,8.78,0,0,1-.63,2.48,80,80,0,0,1-7.3,14.35,42.37,42.37,0,0,1-6,7.74,3.8,3.8,0,0,1-2.34,1c-2.16,0-3.25-1.23-3.25-3.71a3,3,0,0,1,.91-1.86A49.57,49.57,0,0,0,105.55,70a83.72,83.72,0,0,0,7.12-13.84A3,3,0,0,1,115.55,54Zm-12.7-39.23a5,5,0,0,1,2.61.83,125.69,125.69,0,0,1,10.09,8.67A3.94,3.94,0,0,1,117,27.15q0,3.41-3,3.41a3,3,0,0,1-2.07-.83,127.46,127.46,0,0,0-10.09-8.67c-1.26-1-1.89-2-1.89-3Q100,14.76,102.85,14.76Zm29.28-1.54q3.26,0,3.25,3.3a7.78,7.78,0,0,1-.37,2.37,64.11,64.11,0,0,1-2.7,6.3h11c.49-.83,1-1.62,1.45-2.37a73.23,73.23,0,0,0,4-7.64,3.2,3.2,0,0,1,2.88-1.55,2.75,2.75,0,0,1,2,.93,3.31,3.31,0,0,1,.9,2.37,4.06,4.06,0,0,1-.82,2.38,52.06,52.06,0,0,1-2.61,5.36,3.34,3.34,0,0,0-.36.52h14.15q3,0,3,3.2c0,2.2-1,3.31-3,3.31H148.71v9.08h14.42q2.88,0,2.88,3.41t-2.88,3.3H148.71V57.4h14.78q2.88,0,2.88,3.3t-2.88,3.21H148.71v10H165.2q3.24,0,3.24,3.2t-3.24,3.3H127.09q-5.78,0-5.77-6.5V39.44a33.85,33.85,0,0,1-2.88,2.17,2.15,2.15,0,0,1-1.08.41q-3.61,0-3.61-4a4,4,0,0,1,2.16-3.3,37,37,0,0,0,9.1-9.6,50.37,50.37,0,0,0,4.87-10.74A3.11,3.11,0,0,1,132.13,13.22Zm-5,20.44v7.12h15V31.7H128.44c-.06.13-.12.2-.18.2Zm0,13.83V57.4h15V47.49Zm0,16.42v6.71q0,3.3,2.79,3.3h12.25v-10Z"/><path class="cls-2" d="M12.79,141.28H11V135.1a14.3,14.3,0,0,0-.2-3,3.26,3.26,0,0,0-3.54-2.58,4.75,4.75,0,0,0-2.95,1A4.57,4.57,0,0,0,2.56,133a15.09,15.09,0,0,0-.26,3.52v4.75H.47v-18H2.3v7.33A6.61,6.61,0,0,1,7.59,128a5.43,5.43,0,0,1,2.78.72,4.38,4.38,0,0,1,1.83,2,9.87,9.87,0,0,1,.59,3.92Z"/><path class="cls-2" d="M13.25,141.74H10.49V135.1a14,14,0,0,0-.18-2.86A2.78,2.78,0,0,0,7.22,130a4.25,4.25,0,0,0-2.67.89A4.17,4.17,0,0,0,3,133.13a14.71,14.71,0,0,0-.25,3.4v5.21H0V122.86H2.76v6.61a6.87,6.87,0,0,1,4.83-1.94,5.87,5.87,0,0,1,3,.78,4.81,4.81,0,0,1,2,2.19,10,10,0,0,1,.63,4.11Zm-1.83-.93h.9v-6.2a9.27,9.27,0,0,0-.55-3.72,3.88,3.88,0,0,0-1.63-1.77,4.87,4.87,0,0,0-2.55-.66,6.18,6.18,0,0,0-4.94,2.48l-.82,1v-8.15H.93v17h.9v-4.28a15.37,15.37,0,0,1,.28-3.64A5.05,5.05,0,0,1,4,130.16a5.2,5.2,0,0,1,3.23-1.09,3.74,3.74,0,0,1,4,2.93,14.69,14.69,0,0,1,.21,3.1Z"/><path class="cls-2" d="M28.16,141.28H25.59l-7.07-5.82v5.82H16.67v-18h1.85v10.22L25,128.32h2.67L20,134.5Z"/><path class="cls-2" d="M29.46,141.74h-4L19,136.44v5.3H16.21V122.86H19v9.71l5.89-4.71H29l-8.33,6.65Zm-3.7-.93h1.11l-7.64-6.31,7.15-5.71H25.2l-7.13,5.7Zm-8.62,0h.91v-17h-.91Z"/><path class="cls-2" d="M37.15,137.8a3.51,3.51,0,0,1-1.23,2.73,4.47,4.47,0,0,1-3,1.08,5.2,5.2,0,0,1-4.17-1.83l1.14-1.19A4.1,4.1,0,0,0,32.79,140a2.9,2.9,0,0,0,1.82-.61,1.87,1.87,0,0,0,.8-1.53,2.07,2.07,0,0,0-.95-1.66,11.38,11.38,0,0,0-1.84-1,8.31,8.31,0,0,1-2.29-1.47,3.15,3.15,0,0,1-1-2.33A3.11,3.11,0,0,1,30.46,129a4.06,4.06,0,0,1,2.75-1,6,6,0,0,1,3.93,1.75L36,130.85a4.34,4.34,0,0,0-2.84-1.29,2.34,2.34,0,0,0-1.49.51,1.57,1.57,0,0,0-.65,1.27q0,1.28,2.7,2.55a9.62,9.62,0,0,1,2.41,1.51A3.18,3.18,0,0,1,37.15,137.8Z"/><path class="cls-2" d="M32.88,142.07a5.68,5.68,0,0,1-4.53-2l-.27-.32,1.77-1.85.33.35a3.63,3.63,0,0,0,2.61,1.29,2.41,2.41,0,0,0,1.54-.52,1.42,1.42,0,0,0,.61-1.16,1.59,1.59,0,0,0-.76-1.28,10.51,10.51,0,0,0-1.75-1A8.49,8.49,0,0,1,30,134.08a3.64,3.64,0,0,1-1.12-2.66,3.56,3.56,0,0,1,1.27-2.82,4.48,4.48,0,0,1,3.06-1.07,6.45,6.45,0,0,1,4.24,1.86l.38.34L36,131.48l-.32-.28c-1.37-1.22-2.77-1.52-3.73-.76a1.09,1.09,0,0,0-.47.9c0,.45.42,1.18,2.43,2.13a9.84,9.84,0,0,1,2.53,1.59,3.68,3.68,0,0,1,1.19,2.74,3.94,3.94,0,0,1-1.39,3.08A4.93,4.93,0,0,1,32.88,142.07Zm-3.53-2.29a4.71,4.71,0,0,0,3.53,1.36,3.92,3.92,0,0,0,2.73-1,3,3,0,0,0,1.07-2.37,2.75,2.75,0,0,0-.9-2.07,9.09,9.09,0,0,0-2.29-1.41c-2-.95-3-1.92-3-3a2,2,0,0,1,.82-1.64c1.24-1,3-.76,4.6.52l.49-.46a5.28,5.28,0,0,0-3.23-1.3,3.58,3.58,0,0,0-2.45.84,2.64,2.64,0,0,0-1,2.12,2.69,2.69,0,0,0,.85,2,7.75,7.75,0,0,0,2.16,1.38,10.39,10.39,0,0,1,1.93,1,2.47,2.47,0,0,1,1.13,2,2.32,2.32,0,0,1-1,1.9,3.88,3.88,0,0,1-5-.53Z"/><path class="cls-2" d="M52.68,141.28H50.85V135.1a14.3,14.3,0,0,0-.2-3,3.26,3.26,0,0,0-3.54-2.58,4.75,4.75,0,0,0-3,1A4.57,4.57,0,0,0,42.45,133a15.09,15.09,0,0,0-.26,3.52v4.75H40.36v-18h1.83v7.33A6.61,6.61,0,0,1,47.48,128a5.41,5.41,0,0,1,2.78.72,4.38,4.38,0,0,1,1.83,2,9.87,9.87,0,0,1,.59,3.92Z"/><path class="cls-2" d="M53.14,141.74H50.38V135.1a13.75,13.75,0,0,0-.18-2.87A2.78,2.78,0,0,0,47.11,130a4.33,4.33,0,0,0-2.67.89,4.12,4.12,0,0,0-1.54,2.24,15.09,15.09,0,0,0-.25,3.39v5.21H39.89V122.86h2.76v6.61a6.89,6.89,0,0,1,4.83-1.94,5.87,5.87,0,0,1,3,.78,4.81,4.81,0,0,1,2,2.19,10,10,0,0,1,.63,4.11Zm-1.83-.93h.9v-6.2a9.49,9.49,0,0,0-.54-3.72A4,4,0,0,0,50,129.12a5,5,0,0,0-2.55-.66,6.14,6.14,0,0,0-4.93,2.48l-.83,1v-8.15h-.9v17h.9v-4.28a15.31,15.31,0,0,1,.28-3.64,5.05,5.05,0,0,1,1.88-2.73,5.2,5.2,0,0,1,3.23-1.09,3.74,3.74,0,0,1,4,2.93,14.08,14.08,0,0,1,.21,3.1Z"/><path class="cls-2" d="M70.61,134.83a6.29,6.29,0,0,1-2.11,4.82,8,8,0,0,1-10.48,0,6.31,6.31,0,0,1-2.12-4.83,6.42,6.42,0,0,1,2-4.66,7.8,7.8,0,0,1,10.81,0A6.44,6.44,0,0,1,70.61,134.83Zm-1.86,0a4.94,4.94,0,0,0-1.58-3.68,5.67,5.67,0,0,0-7.81,0,5,5,0,0,0-1.59,3.68,5.06,5.06,0,0,0,2.72,4.48,5.93,5.93,0,0,0,2.77.66A5.2,5.2,0,0,0,68,137.49,5,5,0,0,0,68.75,134.87Z"/><path class="cls-2" d="M63.26,142.07A7.89,7.89,0,0,1,57.71,140a6.78,6.78,0,0,1-2.28-5.17,6.87,6.87,0,0,1,2.09-5,8.3,8.3,0,0,1,11.48,0,6.93,6.93,0,0,1,2.08,5A6.75,6.75,0,0,1,68.81,140,7.9,7.9,0,0,1,63.26,142.07Zm0-13.61a6.74,6.74,0,0,0-5.08,2,5.89,5.89,0,0,0-1.81,4.33,5.77,5.77,0,0,0,2,4.48,7.53,7.53,0,0,0,9.84,0,5.84,5.84,0,0,0,2-4.48,5.93,5.93,0,0,0-1.82-4.34A6.74,6.74,0,0,0,63.26,128.46Zm0,12a6.38,6.38,0,0,1-3-.72A5.52,5.52,0,0,1,59,130.85a6.17,6.17,0,0,1,8.46,0,5.53,5.53,0,0,1,.93,6.88A5.67,5.67,0,0,1,63.26,140.48Zm0-10.38a4.87,4.87,0,0,0-3.58,1.42,4.61,4.61,0,0,0-.8,5.69,4.62,4.62,0,0,0,1.83,1.73,5.36,5.36,0,0,0,2.55.61,4.72,4.72,0,0,0,4.36-2.31,4.43,4.43,0,0,0,.67-2.37,4.49,4.49,0,0,0-1.45-3.35A4.87,4.87,0,0,0,63.26,130.1Z"/><path class="cls-2" d="M88.73,134.77a6.45,6.45,0,0,1-2.08,4.82,7.19,7.19,0,0,1-5.16,2,7.3,7.3,0,0,1-5.66-2.56v7H74v-17.7h1.82v2.38A6.85,6.85,0,0,1,81.44,128a7.24,7.24,0,0,1,5.16,2A6.31,6.31,0,0,1,88.73,134.77Zm-1.85,0a5,5,0,0,0-.75-2.61,5.24,5.24,0,0,0-2-1.92,5.94,5.94,0,0,0-2.8-.68,5.57,5.57,0,0,0-4,1.52,5,5,0,0,0-1.59,3.74,4.73,4.73,0,0,0,2.79,4.51,6,6,0,0,0,2.82.7,5.64,5.64,0,0,0,2.8-.72,5.35,5.35,0,0,0,2-1.94A4.85,4.85,0,0,0,86.88,134.82Z"/><path class="cls-2" d="M76.3,146.48H73.55V127.86H76.3v1.65a7.22,7.22,0,0,1,5.14-2,7.75,7.75,0,0,1,5.48,2.11,6.78,6.78,0,0,1,2.27,5.13A6.87,6.87,0,0,1,87,139.92a8,8,0,0,1-10.67.24Zm-1.82-.93h.89v-7.71l.81.9a6.79,6.79,0,0,0,5.31,2.4,6.67,6.67,0,0,0,4.84-1.89,5.93,5.93,0,0,0,1.93-4.48,5.85,5.85,0,0,0-2-4.45,6.8,6.8,0,0,0-4.85-1.86A6.32,6.32,0,0,0,76.2,131l-.83,1v-3.25h-.89Zm6.83-5a6.59,6.59,0,0,1-3-.74,5.2,5.2,0,0,1-3-4.93A5.4,5.4,0,0,1,77,130.8a6,6,0,0,1,4.32-1.66,6.37,6.37,0,0,1,3,.74A5.72,5.72,0,0,1,86.53,132a5.44,5.44,0,0,1,.82,2.85,5.36,5.36,0,0,1-.83,2.85,5.93,5.93,0,0,1-2.18,2.1A6.26,6.26,0,0,1,81.31,140.54Zm0-10.46a5,5,0,0,0-3.68,1.39,4.47,4.47,0,0,0-1.44,3.4A4.27,4.27,0,0,0,78.7,139a5.54,5.54,0,0,0,5.19,0,5,5,0,0,0,1.84-1.77,4.48,4.48,0,0,0,.68-2.36,4.39,4.39,0,0,0-.68-2.36,4.71,4.71,0,0,0-1.86-1.76A5.49,5.49,0,0,0,81.29,130.08Z"/><path class="cls-2" d="M104.26,134.68a10.57,10.57,0,0,1-.46,3.48,4.86,4.86,0,0,1-2.27,2.68,7,7,0,0,1-3.44.77q-4.07,0-5.51-2.92a9.53,9.53,0,0,1-.69-4.13v-6.24h1.85v6.05a11.35,11.35,0,0,0,.26,3,3.4,3.4,0,0,0,1.55,1.93,5,5,0,0,0,2.54.64,4.84,4.84,0,0,0,2.47-.61,3.41,3.41,0,0,0,1.56-1.83,11.58,11.58,0,0,0,.27-3.17v-6.05h1.87Z"/><path class="cls-2" d="M98.09,142.07c-2.89,0-4.88-1.06-5.92-3.17a9.79,9.79,0,0,1-.74-4.34v-6.7h2.78v6.51a10.91,10.91,0,0,0,.23,2.9,3,3,0,0,0,1.35,1.67,4.92,4.92,0,0,0,4.54,0,3,3,0,0,0,1.35-1.59,10.78,10.78,0,0,0,.24-3v-6.51h2.8v6.82a11.18,11.18,0,0,1-.48,3.63,5.34,5.34,0,0,1-2.48,2.93A7.35,7.35,0,0,1,98.09,142.07Zm-5.73-13.28v5.77a9.22,9.22,0,0,0,.64,3.92c.88,1.8,2.55,2.66,5.09,2.66a6.55,6.55,0,0,0,3.21-.71,4.36,4.36,0,0,0,2.06-2.43,10.15,10.15,0,0,0,.43-3.32v-5.89h-.94v5.58a11.74,11.74,0,0,1-.3,3.33,3.86,3.86,0,0,1-1.75,2.07,5.84,5.84,0,0,1-5.49,0,4,4,0,0,1-1.76-2.19,11.87,11.87,0,0,1-.28-3.18v-5.58Z"/><path class="cls-2" d="M110.17,139.52c0,1.17-.37,1.76-1.1,1.76s-1.14-.62-1.14-1.84.37-1.72,1.11-1.72a1,1,0,0,1,.89.67A2.63,2.63,0,0,1,110.17,139.52Z"/><path class="cls-2" d="M109.07,141.74c-.6,0-1.6-.29-1.6-2.3s1-2.19,1.57-2.19a1.42,1.42,0,0,1,1.32.95,3.25,3.25,0,0,1,.27,1.32C110.63,141.45,109.65,141.74,109.07,141.74Zm0-3.55c-.19,0-.64,0-.64,1.25s.49,1.37.67,1.37.63,0,.63-1.29a2.18,2.18,0,0,0-.19-.93C109.32,138.19,109.13,138.19,109,138.19Z"/><path class="cls-2" d="M127.55,138.68q-2.13,2.92-6.6,2.93a8.24,8.24,0,0,1-5.47-1.86,6,6,0,0,1-2.3-4.84,6.31,6.31,0,0,1,1-3.5,7,7,0,0,1,2.84-2.51,8.79,8.79,0,0,1,4-.91,8.37,8.37,0,0,1,4.92,1.42,5.88,5.88,0,0,1,1.54,1.6l-1.44.83a6.23,6.23,0,0,0-5.09-2.26,6.33,6.33,0,0,0-4.23,1.45,4.71,4.71,0,0,0-1.77,3.76,4.89,4.89,0,0,0,.79,2.66,5.38,5.38,0,0,0,2.16,1.93,6.57,6.57,0,0,0,3.06.7,6.41,6.41,0,0,0,5.08-2.27Z"/><path class="cls-2" d="M121,142.07a8.73,8.73,0,0,1-5.77-2,6.49,6.49,0,0,1-2.47-5.2,6.85,6.85,0,0,1,1.11-3.75,7.56,7.56,0,0,1,3-2.68,9.41,9.41,0,0,1,4.25-.95,8.89,8.89,0,0,1,5.19,1.5,6.1,6.1,0,0,1,1.66,1.73l.27.41L126,132.43l-.25-.3A5.78,5.78,0,0,0,121,130a5.93,5.93,0,0,0-3.93,1.34,4.24,4.24,0,0,0-1.6,3.41,4.44,4.44,0,0,0,.72,2.42,4.94,4.94,0,0,0,2,1.76,6.29,6.29,0,0,0,2.85.64,5.94,5.94,0,0,0,4.73-2.1l.26-.3,2.21,1.34-.3.4C126.42,141,124.08,142.07,121,142.07Zm.14-13.61a8.42,8.42,0,0,0-3.83.85,6.61,6.61,0,0,0-2.66,2.35,6,6,0,0,0-.95,3.25,5.52,5.52,0,0,0,2.13,4.48,7.78,7.78,0,0,0,5.17,1.75c2.63,0,4.58-.76,5.91-2.33l-.66-.4a6.93,6.93,0,0,1-5.17,2.13,7.15,7.15,0,0,1-3.27-.74,5.92,5.92,0,0,1-2.34-2.09,5.43,5.43,0,0,1-.86-2.92,5.21,5.21,0,0,1,1.92-4.12,6.84,6.84,0,0,1,4.54-1.56,6.76,6.76,0,0,1,5.19,2.13l.66-.37a5.21,5.21,0,0,0-1.12-1.08A8,8,0,0,0,121.09,128.46Z"/><path class="cls-2" d="M145.08,134.83a6.29,6.29,0,0,1-2.11,4.82,8,8,0,0,1-10.47,0,6.29,6.29,0,0,1-2.13-4.83,6.42,6.42,0,0,1,1.95-4.66,7.82,7.82,0,0,1,10.82,0A6.47,6.47,0,0,1,145.08,134.83Zm-1.85,0a5,5,0,0,0-1.59-3.68,5.67,5.67,0,0,0-7.81,0,5,5,0,0,0-1.59,3.68,5,5,0,0,0,.71,2.58,5.1,5.1,0,0,0,2,1.9,5.93,5.93,0,0,0,2.77.66,5.19,5.19,0,0,0,4.76-2.52A5,5,0,0,0,143.23,134.87Z"/><path class="cls-2" d="M137.73,142.07a7.89,7.89,0,0,1-5.55-2.07,6.77,6.77,0,0,1-2.27-5.17,6.86,6.86,0,0,1,2.08-5,8.3,8.3,0,0,1,11.48,0,6.93,6.93,0,0,1,2.08,5,6.75,6.75,0,0,1-2.27,5.16A7.9,7.9,0,0,1,137.73,142.07Zm0-13.61a6.74,6.74,0,0,0-5.08,2,5.89,5.89,0,0,0-1.81,4.33,5.77,5.77,0,0,0,2,4.48,7.53,7.53,0,0,0,9.84,0,5.84,5.84,0,0,0,2-4.48,5.93,5.93,0,0,0-1.82-4.34A6.74,6.74,0,0,0,137.73,128.46Zm0,12a6.38,6.38,0,0,1-3-.72,5.52,5.52,0,0,1-1.24-8.91,6.18,6.18,0,0,1,8.47,0,5.54,5.54,0,0,1,.92,6.88A5.67,5.67,0,0,1,137.73,140.48Zm0-10.38a4.83,4.83,0,0,0-3.57,1.42,4.46,4.46,0,0,0-1.45,3.35,4.5,4.5,0,0,0,.64,2.34,4.62,4.62,0,0,0,1.83,1.73,5.48,5.48,0,0,0,2.55.61,4.72,4.72,0,0,0,4.36-2.31,4.57,4.57,0,0,0-.78-5.72A4.84,4.84,0,0,0,137.73,130.1Z"/><path class="cls-2" d="M169.61,141.28h-1.87v-7.07a11.58,11.58,0,0,0-.15-2.27,2.81,2.81,0,0,0-1.27-1.84,3.59,3.59,0,0,0-1.89-.48,4.34,4.34,0,0,0-2.44.72,4.25,4.25,0,0,0-1.59,1.9,11.28,11.28,0,0,0-.5,4v5.07h-1.82v-6.63a14.83,14.83,0,0,0-.13-2.47,3,3,0,0,0-1.29-2.06,3.51,3.51,0,0,0-1.89-.5,4.24,4.24,0,0,0-2.41.73,4.16,4.16,0,0,0-1.56,1.84,9.11,9.11,0,0,0-.54,3.61v5.48h-1.81v-13h1.81v2.24a6,6,0,0,1,4.85-2.57,4.56,4.56,0,0,1,3.46,1.35,5.27,5.27,0,0,1,1,1.76A5.79,5.79,0,0,1,164.8,128a4.28,4.28,0,0,1,4.27,2.57,9.43,9.43,0,0,1,.54,3.65Z"/><path class="cls-2" d="M170.08,141.74h-2.8v-7.53a9.79,9.79,0,0,0-.15-2.16,2.33,2.33,0,0,0-1.06-1.56,3.12,3.12,0,0,0-1.64-.4,3.85,3.85,0,0,0-2.18.64,3.79,3.79,0,0,0-1.42,1.7,10.7,10.7,0,0,0-.46,3.78v5.53h-2.76v-7.09a16.82,16.82,0,0,0-.11-2.38,2.5,2.5,0,0,0-1.1-1.75,3.65,3.65,0,0,0-3.79.22,3.76,3.76,0,0,0-1.39,1.64,9,9,0,0,0-.49,3.42v5.94H148V127.86h2.75v1.48a6.08,6.08,0,0,1,4.38-1.81,5,5,0,0,1,3.8,1.48,4.87,4.87,0,0,1,.76,1.12,6.11,6.11,0,0,1,5.13-2.6,4.71,4.71,0,0,1,4.69,2.84,9.54,9.54,0,0,1,.59,3.84Zm-1.87-.93h.94v-6.6a8.77,8.77,0,0,0-.51-3.45,3.79,3.79,0,0,0-3.84-2.3,5.3,5.3,0,0,0-4.81,2.88l-.5.82-.34-.89a4.55,4.55,0,0,0-.92-1.61,4.06,4.06,0,0,0-3.12-1.2,5.44,5.44,0,0,0-4.48,2.39l-.83,1.09v-3.15h-.89v12h.89v-5a9.64,9.64,0,0,1,.57-3.8,4.8,4.8,0,0,1,4.4-2.84,3.9,3.9,0,0,1,2.13.57,3.42,3.42,0,0,1,1.51,2.36,15.72,15.72,0,0,1,.14,2.56v6.16h.88v-4.6a11.47,11.47,0,0,1,.54-4.15,4.7,4.7,0,0,1,1.76-2.11,4.82,4.82,0,0,1,2.7-.79,4.09,4.09,0,0,1,2.13.54,3.28,3.28,0,0,1,1.48,2.14,11.45,11.45,0,0,1,.17,2.37Z"/><path class="cls-1" d="M42.4,40.06V53.27H35.83V22.61q0-3.72,3.07-3.72c2.34,0,3.5,1.24,3.5,3.72v9.91H67.84q3,0,3,3.72c0,2.54-1,3.82-3,3.82Z"/><rect class="cls-3" x="19.86" y="55.38" width="50.97" height="37"/><path class="cls-2" d="M70.83,94.72h-51a2.33,2.33,0,0,1-2.33-2.34v-37a2.33,2.33,0,0,1,2.33-2.33h51a2.33,2.33,0,0,1,2.33,2.33v37A2.33,2.33,0,0,1,70.83,94.72ZM22.19,90.05H68.5V57.72H22.19Z"/></g></g></svg>